# xmcd
# Copyright (C) 1995-1998 Ti Kan
#
# Track frame offsets:
#       150
#       13115
#       29280
#       41027
#       51831
#       64909
#
# Disc length: 1031 seconds
#
# Revision: 0
# Processed by: cddbd v1.5.2PL0 Copyright (c) Steve Scherf et al.
# Submitted via: CD-Transfer v1.0
#
DISCID=4d040506
DTITLE=Weihnachten 06 - 
DYEAR=1900
DGENRE=
TTITLE0=Zellberg Buam/ Urig and Echte Weinacht
TTITLE1=Ich Wünsche Mir
TTITLE2=Fröhlichkeit Zur Weihnachtszeit
TTITLE3=Sternengold
TTITLE4=An Alle Kinder Dieser Welt
TTITLE5=S´kloane Kircherl
EXTD=
EXTT0=
EXTT1=
EXTT2=
EXTT3=
EXTT4=
EXTT5=
PLAYORDER=
